<svg width="14" height="14" viewBox="0 0 14 14" fill="none" xmlns="http://www.w3.org/2000/svg">
<g id="vuesax/bold/export">
<g id="export">
<path id="Vector" d="M9.44352 1.16699H4.55518C2.43185 1.16699 1.16602 2.43283 1.16602 4.55616V9.43866C1.16602 11.5678 2.43185 12.8337 4.55518 12.8337H9.43768C11.561 12.8337 12.8268 11.5678 12.8268 9.44449V4.55616C12.8327 2.43283 11.5668 1.16699 9.44352 1.16699ZM10.0618 7.19283C10.0618 7.43199 9.86351 7.63033 9.62435 7.63033C9.38518 7.63033 9.18685 7.43199 9.18685 7.19283V5.43116L4.68352 9.93449C4.59602 10.022 4.48518 10.0628 4.37435 10.0628C4.26352 10.0628 4.15268 10.022 4.06518 9.93449C3.89602 9.76533 3.89602 9.48533 4.06518 9.31616L8.56852 4.81283H6.80685C6.56768 4.81283 6.36935 4.61449 6.36935 4.37533C6.36935 4.13616 6.56768 3.93783 6.80685 3.93783H9.62435C9.86351 3.93783 10.0618 4.13616 10.0618 4.37533V7.19283Z" fill="#5555F9"/>
</g>
</g>
</svg>
