<svg width="14" height="14" viewBox="0 0 14 14" fill="none" xmlns="http://www.w3.org/2000/svg">
<g id="vuesax/bold/document">
<g id="document">
<path id="Vector" d="M9.44352 1.16699H4.55518C2.43185 1.16699 1.16602 2.43283 1.16602 4.55616V9.43866C1.16602 11.5678 2.43185 12.8337 4.55518 12.8337H9.43768C11.561 12.8337 12.8268 11.5678 12.8268 9.44449V4.55616C12.8327 2.43283 11.5668 1.16699 9.44352 1.16699ZM9.18685 9.18783H4.81185C4.57268 9.18783 4.37435 8.98949 4.37435 8.75033C4.37435 8.51116 4.57268 8.31283 4.81185 8.31283H9.18685C9.42601 8.31283 9.62435 8.51116 9.62435 8.75033C9.62435 8.98949 9.42601 9.18783 9.18685 9.18783ZM9.18685 5.68783H4.81185C4.57268 5.68783 4.37435 5.48949 4.37435 5.25033C4.37435 5.01116 4.57268 4.81283 4.81185 4.81283H9.18685C9.42601 4.81283 9.62435 5.01116 9.62435 5.25033C9.62435 5.48949 9.42601 5.68783 9.18685 5.68783Z" fill="#12B76A"/>
</g>
</g>
</svg>
