<svg width="20" height="20" viewBox="0 0 20 20" fill="none" xmlns="http://www.w3.org/2000/svg">
<g id="vuesax/bold/award">
<path id="Vector" d="M14.8415 4.57533V5.19199L11.8915 3.48366C10.7749 2.84199 9.21654 2.84199 8.1082 3.48366L5.1582 5.20033V4.57533C5.1582 2.70033 6.1832 1.66699 8.0582 1.66699H11.9415C13.8165 1.66699 14.8415 2.70033 14.8415 4.57533Z" fill="#5555F9"/>
<path id="Vector_2" d="M14.866 6.64186L14.7494 6.58353L13.616 5.93353L11.266 4.5752C10.5493 4.15853 9.44935 4.15853 8.73268 4.5752L6.38268 5.9252L5.24935 6.59186L5.09935 6.66686C3.64102 7.6502 3.54102 7.83353 3.54102 9.40853V13.1752C3.54102 14.7502 3.64102 14.9335 5.13268 15.9419L8.73268 18.0169C9.09102 18.2335 9.54102 18.3252 9.99935 18.3252C10.4493 18.3252 10.9077 18.2252 11.266 18.0169L14.8993 15.9169C16.366 14.9335 16.4577 14.7585 16.4577 13.1752V9.40853C16.4577 7.83353 16.3577 7.6502 14.866 6.64186ZM12.3243 11.2502L11.816 11.8752C11.7327 11.9669 11.6743 12.1419 11.6827 12.2669L11.7327 13.0669C11.766 13.5585 11.416 13.8085 10.9577 13.6335L10.216 13.3335C10.0993 13.2919 9.90768 13.2919 9.79102 13.3335L9.04935 13.6252C8.59102 13.8085 8.24102 13.5502 8.27435 13.0585L8.32435 12.2585C8.33268 12.1335 8.27435 11.9585 8.19102 11.8669L7.67435 11.2502C7.35768 10.8752 7.49935 10.4585 7.97435 10.3335L8.74935 10.1335C8.87435 10.1002 9.01602 9.98353 9.08268 9.88353L9.51602 9.21686C9.78268 8.8002 10.2077 8.8002 10.4827 9.21686L10.916 9.88353C10.9827 9.99186 11.1327 10.1002 11.2493 10.1335L12.0243 10.3335C12.4993 10.4585 12.641 10.8752 12.3243 11.2502Z" fill="#5555F9"/>
</g>
</svg>
