<svg width="53" height="53" viewBox="0 0 53 53" fill="none" xmlns="http://www.w3.org/2000/svg">
<g filter="url(#filter0_d_1262_13172)">
<circle cx="26.25" cy="25.75" r="24.25" fill="url(#paint0_linear_1262_13172)"/>
<circle cx="26.25" cy="25.75" r="22.25" stroke="#EEFFF3" stroke-width="4"/>
</g>
<path d="M30.8415 20.0748V20.6915L27.8915 18.9832C26.7749 18.3415 25.2165 18.3415 24.1082 18.9832L21.1582 20.6998V20.0748C21.1582 18.1998 22.1832 17.1665 24.0582 17.1665H27.9415C29.8165 17.1665 30.8415 18.1998 30.8415 20.0748Z" fill="#344054"/>
<path d="M30.866 22.1419L30.7494 22.0835L29.616 21.4335L27.266 20.0752C26.5493 19.6585 25.4493 19.6585 24.7327 20.0752L22.3827 21.4252L21.2493 22.0919L21.0993 22.1669C19.641 23.1502 19.541 23.3335 19.541 24.9085V28.6752C19.541 30.2502 19.641 30.4335 21.1327 31.4419L24.7327 33.5169C25.091 33.7335 25.541 33.8252 25.9993 33.8252C26.4493 33.8252 26.9077 33.7252 27.266 33.5169L30.8993 31.4169C32.366 30.4335 32.4577 30.2585 32.4577 28.6752V24.9085C32.4577 23.3335 32.3577 23.1502 30.866 22.1419ZM28.3243 26.7502L27.816 27.3752C27.7327 27.4669 27.6743 27.6419 27.6827 27.7669L27.7327 28.5669C27.766 29.0585 27.416 29.3085 26.9577 29.1335L26.216 28.8335C26.0993 28.7919 25.9077 28.7919 25.791 28.8335L25.0493 29.1252C24.591 29.3085 24.241 29.0502 24.2743 28.5585L24.3243 27.7585C24.3327 27.6335 24.2743 27.4585 24.191 27.3669L23.6743 26.7502C23.3577 26.3752 23.4993 25.9585 23.9743 25.8335L24.7493 25.6335C24.8743 25.6002 25.016 25.4835 25.0827 25.3835L25.516 24.7169C25.7827 24.3002 26.2077 24.3002 26.4827 24.7169L26.916 25.3835C26.9827 25.4919 27.1327 25.6002 27.2493 25.6335L28.0243 25.8335C28.4993 25.9585 28.641 26.3752 28.3243 26.7502Z" fill="#344054"/>
<defs>
<filter id="filter0_d_1262_13172" x="0" y="0.5" width="52.5" height="52.5" filterUnits="userSpaceOnUse" color-interpolation-filters="sRGB">
<feFlood flood-opacity="0" result="BackgroundImageFix"/>
<feColorMatrix in="SourceAlpha" type="matrix" values="0 0 0 0 0 0 0 0 0 0 0 0 0 0 0 0 0 0 127 0" result="hardAlpha"/>
<feOffset dy="1"/>
<feGaussianBlur stdDeviation="1"/>
<feComposite in2="hardAlpha" operator="out"/>
<feColorMatrix type="matrix" values="0 0 0 0 0 0 0 0 0 0 0 0 0 0 0 0 0 0 0.25 0"/>
<feBlend mode="normal" in2="BackgroundImageFix" result="effect1_dropShadow_1262_13172"/>
<feBlend mode="normal" in="SourceGraphic" in2="effect1_dropShadow_1262_13172" result="shape"/>
</filter>
<linearGradient id="paint0_linear_1262_13172" x1="26" y1="7" x2="26.25" y2="50" gradientUnits="userSpaceOnUse">
<stop stop-color="#D0FEE0"/>
<stop offset="1" stop-color="white"/>
</linearGradient>
</defs>
</svg>
