<svg width="11" height="11" viewBox="0 0 11 11" fill="none" xmlns="http://www.w3.org/2000/svg">
<g id="vuesax/outline/command">
<g id="command">
<path id="Vector" d="M7.16732 7.47909H3.83398C3.66315 7.47909 3.52148 7.33742 3.52148 7.16659V3.83325C3.52148 3.66242 3.66315 3.52075 3.83398 3.52075H7.16732C7.33815 3.52075 7.47982 3.66242 7.47982 3.83325V7.16659C7.47982 7.33742 7.33815 7.47909 7.16732 7.47909ZM4.14648 6.85409H6.85482V4.14575H4.14648V6.85409Z" fill="#667085"/>
<path id="Vector_2" d="M2.58398 9.97925C1.72148 9.97925 1.02148 9.27925 1.02148 8.41675C1.02148 7.55425 1.72148 6.85425 2.58398 6.85425H3.83398C4.00482 6.85425 4.14648 6.99591 4.14648 7.16675V8.41675C4.14648 9.27925 3.44648 9.97925 2.58398 9.97925ZM2.58398 7.47925C2.06732 7.47925 1.64648 7.90008 1.64648 8.41675C1.64648 8.93341 2.06732 9.35425 2.58398 9.35425C3.10065 9.35425 3.52148 8.93341 3.52148 8.41675V7.47925H2.58398Z" fill="#667085"/>
<path id="Vector_3" d="M3.83398 4.14575H2.58398C1.72148 4.14575 1.02148 3.44575 1.02148 2.58325C1.02148 1.72075 1.72148 1.02075 2.58398 1.02075C3.44648 1.02075 4.14648 1.72075 4.14648 2.58325V3.83325C4.14648 4.00409 4.00482 4.14575 3.83398 4.14575ZM2.58398 1.64575C2.06732 1.64575 1.64648 2.06659 1.64648 2.58325C1.64648 3.09992 2.06732 3.52075 2.58398 3.52075H3.52148V2.58325C3.52148 2.06659 3.10065 1.64575 2.58398 1.64575Z" fill="#667085"/>
<path id="Vector_4" d="M8.41602 4.14575H7.16602C6.99518 4.14575 6.85352 4.00409 6.85352 3.83325V2.58325C6.85352 1.72075 7.55352 1.02075 8.41602 1.02075C9.27852 1.02075 9.97852 1.72075 9.97852 2.58325C9.97852 3.44575 9.27852 4.14575 8.41602 4.14575ZM7.47852 3.52075H8.41602C8.93268 3.52075 9.35352 3.09992 9.35352 2.58325C9.35352 2.06659 8.93268 1.64575 8.41602 1.64575C7.89935 1.64575 7.47852 2.06659 7.47852 2.58325V3.52075Z" fill="#667085"/>
<path id="Vector_5" d="M8.41602 9.97925C7.55352 9.97925 6.85352 9.27925 6.85352 8.41675V7.16675C6.85352 6.99591 6.99518 6.85425 7.16602 6.85425H8.41602C9.27852 6.85425 9.97852 7.55425 9.97852 8.41675C9.97852 9.27925 9.27852 9.97925 8.41602 9.97925ZM7.47852 7.47925V8.41675C7.47852 8.93341 7.89935 9.35425 8.41602 9.35425C8.93268 9.35425 9.35352 8.93341 9.35352 8.41675C9.35352 7.90008 8.93268 7.47925 8.41602 7.47925H7.47852Z" fill="#667085"/>
</g>
</g>
</svg>
