<svg width="53" height="53" viewBox="0 0 53 53" fill="none" xmlns="http://www.w3.org/2000/svg">
<g id="Group 195">
<g id="Ellipse 12" filter="url(#filter0_d_1269_9303)">
<circle cx="26.25" cy="25.75" r="24.25" fill="url(#paint0_linear_1269_9303)"/>
<circle cx="26.25" cy="25.75" r="22.25" stroke="#EEECFF" stroke-width="4"/>
</g>
<g id="vuesax/bold/note-2">
<path id="Vector" d="M26.5641 30.6308C26.793 30.6841 26.814 30.9839 26.591 31.0583L25.2743 31.4916C21.966 32.5583 20.2243 31.6666 19.1493 28.3583L18.0826 25.0666C17.016 21.7583 17.8993 20.0083 21.2076 18.9416L21.475 18.8531C21.8778 18.7197 22.2734 19.125 22.1645 19.5352C22.1338 19.6507 22.1038 19.7695 22.0743 19.8916L21.2576 23.3833C20.341 27.3083 21.6826 29.4749 25.6076 30.4083L26.5641 30.6308Z" fill="#344054"/>
<path id="Vector_2" d="M30.3078 16.6749L28.9162 16.3499C26.1328 15.6916 24.4745 16.2333 23.4995 18.2499C23.2495 18.7583 23.0495 19.3749 22.8828 20.0833L22.0662 23.5749C21.2495 27.0583 22.3245 28.7749 25.7995 29.5999L27.1995 29.9333C27.6828 30.0499 28.1328 30.1249 28.5495 30.1583C31.1495 30.4083 32.5328 29.1916 33.2328 26.1833L34.0495 22.6999C34.8662 19.2166 33.7995 17.4916 30.3078 16.6749ZM28.7412 25.1083C28.6662 25.3916 28.4162 25.5749 28.1328 25.5749C28.0828 25.5749 28.0328 25.5666 27.9745 25.5583L25.5495 24.9416C25.2162 24.8583 25.0162 24.5166 25.0995 24.1833C25.1828 23.8499 25.5245 23.6499 25.8578 23.7333L28.2828 24.3499C28.6245 24.4333 28.8245 24.7749 28.7412 25.1083ZM31.1828 22.2916C31.1078 22.5749 30.8578 22.7583 30.5745 22.7583C30.5245 22.7583 30.4745 22.7499 30.4162 22.7416L26.3745 21.7166C26.0412 21.6333 25.8412 21.2916 25.9245 20.9583C26.0078 20.6249 26.3495 20.4249 26.6828 20.5083L30.7245 21.5333C31.0662 21.6083 31.2662 21.9499 31.1828 22.2916Z" fill="#344054"/>
</g>
</g>
<defs>
<filter id="filter0_d_1269_9303" x="0" y="0.5" width="52.5" height="52.5" filterUnits="userSpaceOnUse" color-interpolation-filters="sRGB">
<feFlood flood-opacity="0" result="BackgroundImageFix"/>
<feColorMatrix in="SourceAlpha" type="matrix" values="0 0 0 0 0 0 0 0 0 0 0 0 0 0 0 0 0 0 127 0" result="hardAlpha"/>
<feOffset dy="1"/>
<feGaussianBlur stdDeviation="1"/>
<feComposite in2="hardAlpha" operator="out"/>
<feColorMatrix type="matrix" values="0 0 0 0 0 0 0 0 0 0 0 0 0 0 0 0 0 0 0.25 0"/>
<feBlend mode="normal" in2="BackgroundImageFix" result="effect1_dropShadow_1269_9303"/>
<feBlend mode="normal" in="SourceGraphic" in2="effect1_dropShadow_1269_9303" result="shape"/>
</filter>
<linearGradient id="paint0_linear_1269_9303" x1="26.25" y1="4.96429" x2="26.25" y2="33.8333" gradientUnits="userSpaceOnUse">
<stop stop-color="#D0CBFF"/>
<stop offset="0.994793" stop-color="#F0EEFF"/>
</linearGradient>
</defs>
</svg>
