<svg width="16" height="16" viewBox="0 0 16 16" fill="none" xmlns="http://www.w3.org/2000/svg">
<g id="vuesax/bold/document-text">
<g id="document-text">
<path id="Vector" d="M10.5338 1.47317C10.2604 1.19983 9.78711 1.3865 9.78711 1.7665V4.09317C9.78711 5.0665 10.6138 5.87317 11.6204 5.87317C12.2538 5.87983 13.1338 5.87983 13.8871 5.87983C14.2671 5.87983 14.4671 5.43317 14.2004 5.1665C13.2404 4.19983 11.5204 2.45983 10.5338 1.47317Z" fill="#667085"/>
<path id="Vector_2" d="M13.666 6.7935H11.7393C10.1593 6.7935 8.87268 5.50683 8.87268 3.92683V2.00016C8.87268 1.6335 8.57268 1.3335 8.20602 1.3335H5.37935C3.32602 1.3335 1.66602 2.66683 1.66602 5.04683V10.9535C1.66602 13.3335 3.32602 14.6668 5.37935 14.6668H10.6193C12.6727 14.6668 14.3327 13.3335 14.3327 10.9535V7.46016C14.3327 7.0935 14.0327 6.7935 13.666 6.7935ZM7.66602 11.8335H4.99935C4.72602 11.8335 4.49935 11.6068 4.49935 11.3335C4.49935 11.0602 4.72602 10.8335 4.99935 10.8335H7.66602C7.93935 10.8335 8.16602 11.0602 8.16602 11.3335C8.16602 11.6068 7.93935 11.8335 7.66602 11.8335ZM8.99935 9.16683H4.99935C4.72602 9.16683 4.49935 8.94016 4.49935 8.66683C4.49935 8.3935 4.72602 8.16683 4.99935 8.16683H8.99935C9.27268 8.16683 9.49935 8.3935 9.49935 8.66683C9.49935 8.94016 9.27268 9.16683 8.99935 9.16683Z" fill="#667085"/>
</g>
</g>
</svg>
