<svg width="25" height="25" viewBox="0 0 25 25" fill="none" xmlns="http://www.w3.org/2000/svg">
<g clip-path="url(#clip0_1263_26180)">
<path d="M21.0996 0.400391H3.09961C1.44511 0.400391 0.0996094 1.74589 0.0996094 3.40039V21.4004C0.0996094 23.0549 1.44511 24.4004 3.09961 24.4004H21.0996C22.7541 24.4004 24.0996 23.0549 24.0996 21.4004V3.40039C24.0996 1.74589 22.7541 0.400391 21.0996 0.400391Z" fill="#1976D2"/>
<path fill-rule="evenodd" clip-rule="evenodd" d="M20.3496 12.4004H16.5996V9.40039C16.5996 8.57239 17.2716 8.65039 18.0996 8.65039H19.5996V4.90039H16.5996C15.4061 4.90039 14.2615 5.3745 13.4176 6.21841C12.5737 7.06232 12.0996 8.20692 12.0996 9.40039V12.4004H9.09961V16.1504H12.0996V24.4004H16.5996V16.1504H18.8496L20.3496 12.4004Z" fill="#FAFAFA"/>
</g>
<defs>
<clipPath id="clip0_1263_26180">
<rect width="24" height="24" fill="white" transform="translate(0.0996094 0.400391)"/>
</clipPath>
</defs>
</svg>
