<svg width="29" height="29" viewBox="0 0 29 29" fill="none" xmlns="http://www.w3.org/2000/svg">
<g id="Group 204">
<g id="Rectangle 136" filter="url(#filter0_d_1262_13637)">
<rect x="2" y="1" width="25" height="25" rx="3.7037" fill="url(#paint0_linear_1262_13637)"/>
<rect x="2.23148" y="1.23148" width="24.537" height="24.537" rx="3.47222" stroke="url(#paint1_linear_1262_13637)" stroke-width="0.462963"/>
</g>
<g id="Rectangle 137" filter="url(#filter1_d_1262_13637)">
<path d="M3.38867 19.0558C3.38867 18.5444 3.80322 18.1299 4.3146 18.1299H24.685C25.1963 18.1299 25.6109 18.5444 25.6109 19.0558V20.9077C25.6109 22.9532 23.9527 24.6114 21.9072 24.6114H7.09237C5.04687 24.6114 3.38867 22.9532 3.38867 20.9077V19.0558Z" fill="url(#paint2_linear_1262_13637)" fill-opacity="0.5" shape-rendering="crispEdges"/>
</g>
<g id="Ellipse 80" filter="url(#filter2_d_1262_13637)">
<circle cx="14.499" cy="10.2592" r="6.01852" fill="url(#paint3_linear_1262_13637)" fill-opacity="0.5" shape-rendering="crispEdges"/>
</g>
<g id="Star 2" filter="url(#filter3_d_1262_13637)">
<path d="M14.0605 6.52162C14.1991 6.09509 14.8025 6.09509 14.9411 6.52162L15.5402 8.3655C15.6022 8.55625 15.7799 8.6854 15.9805 8.6854L17.9193 8.6854C18.3678 8.6854 18.5542 9.25929 18.1914 9.52291L16.6229 10.6625C16.4606 10.7804 16.3928 10.9893 16.4547 11.1801L17.0538 13.024C17.1924 13.4505 16.7042 13.8052 16.3414 13.5416L14.7729 12.402C14.6107 12.2841 14.3909 12.2841 14.2287 12.402L12.6602 13.5416C12.2973 13.8052 11.8092 13.4505 11.9477 13.024L12.5469 11.1801C12.6088 10.9893 12.5409 10.7804 12.3787 10.6625L10.8102 9.52291C10.4474 9.2593 10.6338 8.6854 11.0823 8.6854L13.0211 8.6854C13.2216 8.6854 13.3994 8.55625 13.4614 8.3655L14.0605 6.52162Z" fill="#FCFCFD"/>
</g>
</g>
<defs>
<filter id="filter0_d_1262_13637" x="0" y="0" width="29" height="29" filterUnits="userSpaceOnUse" color-interpolation-filters="sRGB">
<feFlood flood-opacity="0" result="BackgroundImageFix"/>
<feColorMatrix in="SourceAlpha" type="matrix" values="0 0 0 0 0 0 0 0 0 0 0 0 0 0 0 0 0 0 127 0" result="hardAlpha"/>
<feOffset dy="1"/>
<feGaussianBlur stdDeviation="1"/>
<feComposite in2="hardAlpha" operator="out"/>
<feColorMatrix type="matrix" values="0 0 0 0 0 0 0 0 0 0 0 0 0 0 0 0 0 0 0.1 0"/>
<feBlend mode="normal" in2="BackgroundImageFix" result="effect1_dropShadow_1262_13637"/>
<feBlend mode="normal" in="SourceGraphic" in2="effect1_dropShadow_1262_13637" result="shape"/>
</filter>
<filter id="filter1_d_1262_13637" x="2.46275" y="17.6669" width="24.0745" height="8.3333" filterUnits="userSpaceOnUse" color-interpolation-filters="sRGB">
<feFlood flood-opacity="0" result="BackgroundImageFix"/>
<feColorMatrix in="SourceAlpha" type="matrix" values="0 0 0 0 0 0 0 0 0 0 0 0 0 0 0 0 0 0 127 0" result="hardAlpha"/>
<feOffset dy="0.462963"/>
<feGaussianBlur stdDeviation="0.462963"/>
<feComposite in2="hardAlpha" operator="out"/>
<feColorMatrix type="matrix" values="0 0 0 0 0 0 0 0 0 0 0 0 0 0 0 0 0 0 0.1 0"/>
<feBlend mode="normal" in2="BackgroundImageFix" result="effect1_dropShadow_1262_13637"/>
<feBlend mode="normal" in="SourceGraphic" in2="effect1_dropShadow_1262_13637" result="shape"/>
</filter>
<filter id="filter2_d_1262_13637" x="8.01751" y="4.24072" width="12.963" height="12.963" filterUnits="userSpaceOnUse" color-interpolation-filters="sRGB">
<feFlood flood-opacity="0" result="BackgroundImageFix"/>
<feColorMatrix in="SourceAlpha" type="matrix" values="0 0 0 0 0 0 0 0 0 0 0 0 0 0 0 0 0 0 127 0" result="hardAlpha"/>
<feOffset dy="0.462963"/>
<feGaussianBlur stdDeviation="0.231481"/>
<feComposite in2="hardAlpha" operator="out"/>
<feColorMatrix type="matrix" values="0 0 0 0 0 0 0 0 0 0 0 0 0 0 0 0 0 0 0.25 0"/>
<feBlend mode="normal" in2="BackgroundImageFix" result="effect1_dropShadow_1262_13637"/>
<feBlend mode="normal" in="SourceGraphic" in2="effect1_dropShadow_1262_13637" result="shape"/>
</filter>
<filter id="filter3_d_1262_13637" x="10.1562" y="6.20166" width="8.6896" height="8.35659" filterUnits="userSpaceOnUse" color-interpolation-filters="sRGB">
<feFlood flood-opacity="0" result="BackgroundImageFix"/>
<feColorMatrix in="SourceAlpha" type="matrix" values="0 0 0 0 0 0 0 0 0 0 0 0 0 0 0 0 0 0 127 0" result="hardAlpha"/>
<feOffset dy="0.462963"/>
<feGaussianBlur stdDeviation="0.231481"/>
<feComposite in2="hardAlpha" operator="out"/>
<feColorMatrix type="matrix" values="0 0 0 0 0 0 0 0 0 0 0 0 0 0 0 0 0 0 0.15 0"/>
<feBlend mode="normal" in2="BackgroundImageFix" result="effect1_dropShadow_1262_13637"/>
<feBlend mode="normal" in="SourceGraphic" in2="effect1_dropShadow_1262_13637" result="shape"/>
</filter>
<linearGradient id="paint0_linear_1262_13637" x1="14.5" y1="1" x2="14.5" y2="15.3519" gradientUnits="userSpaceOnUse">
<stop stop-color="#36BFFA"/>
<stop offset="1" stop-color="#455DBD"/>
</linearGradient>
<linearGradient id="paint1_linear_1262_13637" x1="14.5" y1="1" x2="14.5" y2="18.5926" gradientUnits="userSpaceOnUse">
<stop stop-color="#7ECDFF"/>
<stop offset="1" stop-color="#6F8797" stop-opacity="0"/>
</linearGradient>
<linearGradient id="paint2_linear_1262_13637" x1="13.1109" y1="19.7503" x2="13.1109" y2="26.6947" gradientUnits="userSpaceOnUse">
<stop stop-color="#94BEFF"/>
<stop offset="1" stop-color="#4054A7"/>
</linearGradient>
<linearGradient id="paint3_linear_1262_13637" x1="14.499" y1="4.24072" x2="14.499" y2="14.6059" gradientUnits="userSpaceOnUse">
<stop stop-color="#36BFFA"/>
<stop offset="1" stop-color="#455DBD"/>
</linearGradient>
</defs>
</svg>
