<svg width="25" height="25" viewBox="0 0 25 25" fill="none" xmlns="http://www.w3.org/2000/svg">
<g id="linkedin" clip-path="url(#clip0_1263_26186)">
<g id="Layer 2">
<g id="Layer 1">
<path id="Vector" d="M18.7147 0.500488H5.48847C2.51336 0.500488 0.101562 2.91229 0.101562 5.88739V19.1136C0.101562 22.0887 2.51336 24.5005 5.48847 24.5005H18.7147C21.6898 24.5005 24.1016 22.0887 24.1016 19.1136V5.88739C24.1016 2.91229 21.6898 0.500488 18.7147 0.500488Z" fill="#0B86CA"/>
<path id="Vector_2" d="M6.75272 10.4762H9.24666V18.5233H6.75272V10.4762ZM8.02463 6.47754C8.31037 6.47754 8.5897 6.56217 8.82739 6.72075C9.06508 6.87933 9.25048 7.10475 9.3602 7.36857C9.46992 7.6324 9.49904 7.92281 9.4439 8.20317C9.38876 8.48354 9.25182 8.74129 9.05035 8.94391C8.84889 9.14653 8.59193 9.28494 8.31189 9.34169C8.03185 9.39844 7.74127 9.37098 7.47682 9.26277C7.21237 9.15456 6.98589 8.97046 6.82596 8.73368C6.66602 8.49691 6.57979 8.21806 6.57815 7.93234C6.57705 7.74168 6.61366 7.55269 6.68586 7.37624C6.75806 7.19978 6.86444 7.03934 6.99886 6.90414C7.13329 6.76894 7.29312 6.66165 7.46916 6.58844C7.6452 6.51522 7.83398 6.47754 8.02463 6.47754ZM10.8428 10.4762H13.2453V11.5735C13.4858 11.1631 13.8332 10.8256 14.2505 10.5972C14.6677 10.3688 15.1392 10.258 15.6145 10.2766C18.1085 10.2766 18.6156 11.9393 18.6156 14.109V18.5233H16.1216V14.6327C16.1216 13.7016 16.1216 12.4962 14.8248 12.4962C13.5279 12.4962 13.3284 13.5104 13.3284 14.5579V18.5399H10.8345L10.8428 10.4762Z" fill="white"/>
</g>
</g>
</g>
<defs>
<clipPath id="clip0_1263_26186">
<rect width="24" height="24" fill="white" transform="translate(0.101562 0.500488)"/>
</clipPath>
</defs>
</svg>
