<svg width="16" height="16" viewBox="0 0 16 16" fill="none" xmlns="http://www.w3.org/2000/svg">
<g id="vuesax/bold/book">
<path id="Vector" d="M13.6673 10.6667V12.3333C13.6673 13.62 12.6207 14.6667 11.334 14.6667H4.66732C3.38065 14.6667 2.33398 13.62 2.33398 12.3333V11.9C2.33398 10.8533 3.18732 10 4.23398 10H13.0007C13.3673 10 13.6673 10.3 13.6673 10.6667Z" fill="#175CD3"/>
<path id="Vector_2" d="M10.334 1.3335H5.66732C3.00065 1.3335 2.33398 2.00016 2.33398 4.66683V9.72016C2.84065 9.2735 3.50732 9.00016 4.23398 9.00016H13.0007C13.3673 9.00016 13.6673 8.70016 13.6673 8.3335V4.66683C13.6673 2.00016 13.0007 1.3335 10.334 1.3335ZM8.66732 7.16683H5.33398C5.06065 7.16683 4.83398 6.94016 4.83398 6.66683C4.83398 6.3935 5.06065 6.16683 5.33398 6.16683H8.66732C8.94065 6.16683 9.16732 6.3935 9.16732 6.66683C9.16732 6.94016 8.94065 7.16683 8.66732 7.16683ZM10.6673 4.8335H5.33398C5.06065 4.8335 4.83398 4.60683 4.83398 4.3335C4.83398 4.06016 5.06065 3.8335 5.33398 3.8335H10.6673C10.9407 3.8335 11.1673 4.06016 11.1673 4.3335C11.1673 4.60683 10.9407 4.8335 10.6673 4.8335Z" fill="#175CD3"/>
</g>
</svg>
