<svg width="14" height="14" viewBox="0 0 14 14" fill="none" xmlns="http://www.w3.org/2000/svg">
<g id="vuesax/bold/paintbucket">
<g id="paintbucket">
<path id="Vector" d="M11.7426 6.23716C11.7724 6.49759 11.7162 6.76687 11.5406 7.07186H11.3062V7.41085C11.1764 7.57617 11.0114 7.75997 10.7919 7.9841L7.49213 11.278L7.49182 11.2783C6.71573 12.0544 6.28741 12.3335 5.86204 12.3335C5.43624 12.3335 4.97758 12.0354 4.22782 11.2797L4.22542 11.2773L2.16726 9.23081C2.16713 9.23068 2.167 9.23055 2.16687 9.23042C1.77122 8.83475 1.46054 8.49795 1.27093 8.17438C1.09069 7.86681 1.04454 7.6142 1.11675 7.35704L1.1318 7.30347L2.18009 7.09382C2.18957 7.09193 2.20109 7.08982 2.21815 7.08671L2.21986 7.0864C2.23165 7.08426 2.24654 7.08155 2.26166 7.07863C2.33524 7.06723 2.41363 7.05415 2.5001 7.03453C2.81813 6.97335 3.138 6.92274 3.47174 6.87094C3.55752 6.8595 3.64132 6.84835 3.73034 6.83722C4.05642 6.79718 4.38534 6.76323 4.71227 6.74068L4.71228 6.74073L4.7194 6.74014C4.78864 6.73437 4.85623 6.72873 4.92912 6.72312C5.37361 6.69428 5.81501 6.67186 6.25287 6.67186C6.61594 6.67186 6.98471 6.68321 7.34752 6.70589L7.3631 6.70686H7.37871H7.41158C7.81945 6.72958 8.22898 6.76891 8.63502 6.81967L8.66591 6.82353H8.68906C9.08892 6.8741 9.48308 6.93547 9.87158 7.00762L9.91684 7.01603H9.9245C9.9259 7.01623 9.92733 7.01644 9.9288 7.01664C10.1039 7.05054 10.2687 7.08273 10.4268 7.11962L10.4828 7.1327H10.5054C11.0982 7.21681 11.649 6.78832 11.7426 6.23716Z" fill="#101828" stroke="#101828"/>
<path id="Vector_2" d="M12.2217 9.84148C12.0001 9.56732 11.8076 9.33398 11.3759 9.33398C10.9442 9.33398 10.7517 9.56732 10.5359 9.84148C10.0692 10.419 9.85925 11.049 9.93508 11.6557C10.0226 12.3498 10.6176 12.834 11.3759 12.834C12.1342 12.834 12.7292 12.3498 12.8167 11.6498C12.8926 11.0432 12.6884 10.419 12.2217 9.84148Z" fill="#101323"/>
</g>
</g>
</svg>
