<svg width="14" height="14" viewBox="0 0 14 14" fill="none" xmlns="http://www.w3.org/2000/svg">
<g id="vuesax/outline/archive">
<g id="archive">
<path id="Vector" d="M9.625 13.2706H4.375C2.45 13.2706 2.1875 12.2206 2.1875 11.0831V5.96143C2.1875 5.72226 2.38583 5.52393 2.625 5.52393C2.86417 5.52393 3.0625 5.72226 3.0625 5.96143V11.0831C3.0625 12.0981 3.2375 12.3956 4.375 12.3956H9.625C10.7625 12.3956 10.9375 12.0981 10.9375 11.0831V5.96143C10.9375 5.72226 11.1358 5.52393 11.375 5.52393C11.6142 5.52393 11.8125 5.72226 11.8125 5.96143V11.0831C11.8125 12.2206 11.55 13.2706 9.625 13.2706Z" fill="#344054"/>
<path id="Vector_2" d="M11.0827 6.27067H2.91602C1.50435 6.27067 0.728516 5.49484 0.728516 4.08317V2.9165C0.728516 1.50484 1.50435 0.729004 2.91602 0.729004H11.0827C12.4943 0.729004 13.2702 1.50484 13.2702 2.9165V4.08317C13.2702 5.49484 12.4943 6.27067 11.0827 6.27067ZM2.91602 1.604C1.99435 1.604 1.60352 1.99484 1.60352 2.9165V4.08317C1.60352 5.00484 1.99435 5.39567 2.91602 5.39567H11.0827C12.0043 5.39567 12.3952 5.00484 12.3952 4.08317V2.9165C12.3952 1.99484 12.0043 1.604 11.0827 1.604H2.91602Z" fill="#344054"/>
<path id="Vector_3" d="M8.06083 8.604H5.9375C5.69833 8.604 5.5 8.40567 5.5 8.1665C5.5 7.92734 5.69833 7.729 5.9375 7.729H8.06083C8.3 7.729 8.49833 7.92734 8.49833 8.1665C8.49833 8.40567 8.3 8.604 8.06083 8.604Z" fill="#344054"/>
</g>
</g>
</svg>
