<svg width="14" height="14" viewBox="0 0 14 14" fill="none" xmlns="http://www.w3.org/2000/svg">
<g id="vuesax/outline/export">
<g id="export">
<path id="Vector" d="M7.58253 6.85414C7.47169 6.85414 7.36086 6.81331 7.27336 6.72581C7.10419 6.55664 7.10419 6.27664 7.27336 6.10747L12.0567 1.32414C12.2259 1.15497 12.5059 1.15497 12.675 1.32414C12.8442 1.49331 12.8442 1.77331 12.675 1.94247L7.89169 6.72581C7.80419 6.81331 7.69336 6.85414 7.58253 6.85414Z" fill="#667085"/>
<path id="Vector_2" d="M12.8332 4.404C12.594 4.404 12.3957 4.20567 12.3957 3.9665V1.604H10.0332C9.79404 1.604 9.5957 1.40567 9.5957 1.1665C9.5957 0.927337 9.79404 0.729004 10.0332 0.729004H12.8332C13.0724 0.729004 13.2707 0.927337 13.2707 1.1665V3.9665C13.2707 4.20567 13.0724 4.404 12.8332 4.404Z" fill="#667085"/>
<path id="Vector_3" d="M8.74935 13.2707H5.24935C2.08185 13.2707 0.728516 11.9173 0.728516 8.74984V5.24984C0.728516 2.08234 2.08185 0.729004 5.24935 0.729004H6.41602C6.65518 0.729004 6.85352 0.927337 6.85352 1.1665C6.85352 1.40567 6.65518 1.604 6.41602 1.604H5.24935C2.56018 1.604 1.60352 2.56067 1.60352 5.24984V8.74984C1.60352 11.439 2.56018 12.3957 5.24935 12.3957H8.74935C11.4385 12.3957 12.3952 11.439 12.3952 8.74984V7.58317C12.3952 7.344 12.5935 7.14567 12.8327 7.14567C13.0718 7.14567 13.2702 7.344 13.2702 7.58317V8.74984C13.2702 11.9173 11.9168 13.2707 8.74935 13.2707Z" fill="#344054"/>
</g>
</g>
</svg>
