<svg width="53" height="53" viewBox="0 0 53 53" fill="none" xmlns="http://www.w3.org/2000/svg">
<g filter="url(#filter0_d_1262_13161)">
<circle cx="26.75" cy="25.75" r="24.25" fill="url(#paint0_linear_1262_13161)"/>
<circle cx="26.75" cy="25.75" r="22.25" stroke="#FFF9EA" stroke-width="4"/>
</g>
<path d="M27.8342 27.5915L27.3926 27.1498L27.8092 26.7331C28.0509 26.4915 28.0509 26.0915 27.8092 25.8498C27.5676 25.6081 27.1676 25.6081 26.9259 25.8498L26.5092 26.2665L26.0676 25.8248C25.8259 25.5831 25.4259 25.5831 25.1842 25.8248C24.9426 26.0665 24.9426 26.4665 25.1842 26.7081L25.6259 27.1498L25.1676 27.6081C24.9259 27.8498 24.9259 28.2498 25.1676 28.4915C25.2926 28.6165 25.4509 28.6748 25.6092 28.6748C25.7676 28.6748 25.9259 28.6165 26.0509 28.4915L26.5092 28.0331L26.9509 28.4748C27.0759 28.5998 27.2342 28.6581 27.3926 28.6581C27.5509 28.6581 27.7092 28.5998 27.8342 28.4748C28.0759 28.2331 28.0759 27.8415 27.8342 27.5915Z" fill="#344054"/>
<path d="M34.0758 21.3168C33.3675 20.5334 32.1925 20.1418 30.4675 20.1418H30.2675V20.1084C30.2675 18.7084 30.2675 16.9751 27.1342 16.9751H25.8675C22.7342 16.9751 22.7342 18.7084 22.7342 20.1084V20.1418H22.5342C20.8092 20.1418 19.6258 20.5334 18.9258 21.3168C18.1008 22.2418 18.1258 23.4668 18.2092 24.3084L18.2175 24.3668L18.2716 24.9977C18.2848 25.1517 18.3683 25.291 18.4981 25.3749C18.7244 25.5211 18.9633 25.6728 19.1925 25.8001C19.3092 25.8751 19.4342 25.9418 19.5592 26.0084C20.5008 26.5251 21.5092 26.9334 22.5425 27.2168C22.5675 29.3751 24.3342 31.1251 26.5008 31.1251C28.6842 31.1251 30.4592 29.3501 30.4592 27.1668V27.1334C31.5092 26.8168 32.5175 26.3751 33.4592 25.8251C33.5092 25.8001 33.5425 25.7751 33.5842 25.7501C33.9026 25.5771 34.2324 25.3523 34.5356 25.1378C34.6516 25.0558 34.7265 24.9277 34.7422 24.7865L34.7508 24.7084L34.7925 24.3168C34.8008 24.2668 34.8008 24.2251 34.8092 24.1668C34.8758 23.3334 34.8592 22.1834 34.0758 21.3168ZM23.9258 20.1084C23.9258 18.6918 23.9258 18.1584 25.8675 18.1584H27.1342C29.0758 18.1584 29.0758 18.6918 29.0758 20.1084V20.1418H23.9258V20.1084ZM26.5008 29.8751C25.1258 29.8751 23.9842 28.8418 23.8175 27.5084C23.8008 27.4001 23.7925 27.2834 23.7925 27.1668C23.7925 25.6751 25.0092 24.4584 26.5008 24.4584C27.9925 24.4584 29.2092 25.6751 29.2092 27.1668C29.2092 27.2668 29.2008 27.3584 29.1925 27.4501V27.4584C29.0425 28.8168 27.8925 29.8751 26.5008 29.8751Z" fill="#344054"/>
<path d="M34.034 26.9426C34.2413 26.8274 34.5101 26.9943 34.4885 27.2304L34.1923 30.4676C34.0173 32.1342 33.334 33.8342 29.6673 33.8342H23.3173C19.6507 33.8342 18.9673 32.1342 18.8007 30.4759L18.5124 27.3898C18.49 27.1502 18.7463 26.9883 18.959 27.1009C19.609 27.4592 20.284 27.7759 20.9757 28.0259C21.234 28.1176 21.4173 28.3342 21.4923 28.6009C22.1173 30.7676 24.134 32.3759 26.5006 32.3759C28.909 32.3759 30.9423 30.7342 31.534 28.4842C31.6007 28.2176 31.784 28.0009 32.0423 27.9009C32.7423 27.6259 33.409 27.3009 34.034 26.9426Z" fill="#344054"/>
<defs>
<filter id="filter0_d_1262_13161" x="0.5" y="0.5" width="52.5" height="52.5" filterUnits="userSpaceOnUse" color-interpolation-filters="sRGB">
<feFlood flood-opacity="0" result="BackgroundImageFix"/>
<feColorMatrix in="SourceAlpha" type="matrix" values="0 0 0 0 0 0 0 0 0 0 0 0 0 0 0 0 0 0 127 0" result="hardAlpha"/>
<feOffset dy="1"/>
<feGaussianBlur stdDeviation="1"/>
<feComposite in2="hardAlpha" operator="out"/>
<feColorMatrix type="matrix" values="0 0 0 0 0 0 0 0 0 0 0 0 0 0 0 0 0 0 0.25 0"/>
<feBlend mode="normal" in2="BackgroundImageFix" result="effect1_dropShadow_1262_13161"/>
<feBlend mode="normal" in="SourceGraphic" in2="effect1_dropShadow_1262_13161" result="shape"/>
</filter>
<linearGradient id="paint0_linear_1262_13161" x1="26.5" y1="1.5" x2="26.5" y2="37.5" gradientUnits="userSpaceOnUse">
<stop stop-color="#FFEBB4"/>
<stop offset="1" stop-color="#FFFAED"/>
</linearGradient>
</defs>
</svg>
